<?xml version="1.0" encoding="UTF-8" standalone="no"?>
<!-- Created with Inkscape (http://www.inkscape.org/) -->

<svg
   xmlns:dc="http://purl.org/dc/elements/1.1/"
   xmlns:cc="http://creativecommons.org/ns#"
   xmlns:rdf="http://www.w3.org/1999/02/22-rdf-syntax-ns#"
   xmlns:svg="http://www.w3.org/2000/svg"
   xmlns="http://www.w3.org/2000/svg"
   xmlns:sodipodi="http://sodipodi.sourceforge.net/DTD/sodipodi-0.dtd"
   xmlns:inkscape="http://www.inkscape.org/namespaces/inkscape"
   version="1.1"
   id="svg50841"
   xml:space="preserve"
   width="800"
   height="800"
   viewBox="0 0 800 800"
   sodipodi:docname="hiker-color-publicdomainvectors.org.svg"
   inkscape:version="0.92.4 (5da689c313, 2019-01-14)"><metadata
     id="metadata50847"><rdf:RDF><cc:Work
         rdf:about=""><dc:format>image/svg+xml</dc:format><dc:type
           rdf:resource="http://purl.org/dc/dcmitype/StillImage" /><dc:title></dc:title></cc:Work></rdf:RDF></metadata><defs
     id="defs50845"><clipPath
       clipPathUnits="userSpaceOnUse"
       id="clipPath50857"><path
         d="M 0,600 H 600 V 0 H 0 Z"
         id="path50855"
         inkscape:connector-curvature="0" /></clipPath></defs><sodipodi:namedview
     pagecolor="#ffffff"
     bordercolor="#666666"
     borderopacity="1"
     objecttolerance="10"
     gridtolerance="10"
     guidetolerance="10"
     inkscape:pageopacity="0"
     inkscape:pageshadow="2"
     inkscape:window-width="797"
     inkscape:window-height="480"
     id="namedview50843"
     showgrid="false"
     inkscape:zoom="0.295"
     inkscape:cx="400"
     inkscape:cy="400"
     inkscape:window-x="0"
     inkscape:window-y="0"
     inkscape:window-maximized="0"
     inkscape:current-layer="g50849" /><g
     id="g50849"
     inkscape:groupmode="layer"
     inkscape:label="hiker-color-publicdomainvectors.org"
     transform="matrix(1.3333333,0,0,-1.3333333,0,800)"><g
       id="g50851"><g
         id="g50853"
         clip-path="url(#clipPath50857)"><path
           d="m 275.705,567.947 c -14.283,-3.39 -12.92,-3.427 -16.36,-14.282 -2.492,-7.863 -4.21,-19.486 -4.492,-27.896 l 5.355,-9.627 z"
           style="fill:#592e11;fill-opacity:1;fill-rule:nonzero;stroke:none"
           id="path50859"
           inkscape:connector-curvature="0" /><path
           d="m 345.252,554.769 c -5.845,2.56 -16.066,6.226 -33.79,11.309 l -4.197,1.205 42.407,-61.583 z"
           style="fill:#000036;fill-opacity:1;fill-rule:nonzero;stroke:none"
           id="path50861"
           inkscape:connector-curvature="0" /><path
           d="m 386.283,501.993 c -0.847,4.932 -9.914,13.103 -17.349,15.329 -9.305,2.799 -10.671,7.385 -10.671,8.095 0,0.716 -1.509,3.343 -3.364,5.846 -1.832,2.504 0.911,11.01 0.167,13.774 -0.739,2.765 -2.676,5.88 -4.297,6.918 -1.142,0.732 -2.886,1.661 -5.517,2.814 l 4.42,-49.069 z"
           style="fill:#00093e;fill-opacity:1;fill-rule:nonzero;stroke:none"
           id="path50863"
           inkscape:connector-curvature="0" /><path
           d="m 504.795,28.627 c 0.16,3.35 -0.838,9.078 -3.135,19.242 -3.083,13.654 -5.733,23.168 -8.153,29.156 l -0.268,-2.504 z"
           style="fill:#5c0000;fill-opacity:1;fill-rule:nonzero;stroke:none"
           id="path50865"
           inkscape:connector-curvature="0" /><path
           d="m 349.672,505.7 -42.407,61.583 -15.609,4.48 -9.471,-2.276 c -2.462,-0.592 -4.604,-1.094 -6.48,-1.54 l -15.497,-51.805 z"
           style="fill:#06372e;fill-opacity:1;fill-rule:nonzero;stroke:none"
           id="path50867"
           inkscape:connector-curvature="0" /><path
           d="m 241.762,511.616 c -0.289,-0.149 -0.564,-0.292 -0.828,-0.434 l 10.681,2.749 c -3.104,0.167 -6.573,-0.638 -9.853,-2.315"
           style="fill:#602d00;fill-opacity:1;fill-rule:nonzero;stroke:none"
           id="path50869"
           inkscape:connector-curvature="0" /><path
           d="m 254.853,525.769 c -0.154,-4.611 0.123,-8.257 0.941,-9.785 0.178,-0.33 0.323,-0.617 0.433,-0.867 l 3.981,1.025 z"
           style="fill:#602d00;fill-opacity:1;fill-rule:nonzero;stroke:none"
           id="path50871"
           inkscape:connector-curvature="0" /><path
           d="m 260.208,516.142 26.104,-52.444 63.36,42.002 z"
           style="fill:#1b6837;fill-opacity:1;fill-rule:nonzero;stroke:none"
           id="path50873"
           inkscape:connector-curvature="0" /><path
           d="m 465.657,455.587 c -1.72,1.893 -3.786,2.642 -6.568,2.376 -4.004,-0.393 -5.249,-2.277 -11.11,-22.04 l 14.995,-2.157 c 5.193,16.87 5.179,19.061 2.683,21.821"
           style="fill:#001338;fill-opacity:1;fill-rule:nonzero;stroke:none"
           id="path50875"
           inkscape:connector-curvature="0" /><path
           d="m 260.208,516.142 -3.981,-1.025 c 0.671,-1.537 -0.097,-1.612 -4.066,-1.225 -0.181,0.017 -0.363,0.028 -0.546,0.039 l -10.681,-2.749 c -4.129,-2.23 -5.21,-4.024 -8.779,-13.329 -1.078,-2.811 -2.472,-6.608 -4.092,-11.131 l 58.249,-23.024 z"
           style="fill:#596200;fill-opacity:1;fill-rule:nonzero;stroke:none"
           id="path50877"
           inkscape:connector-curvature="0" /><path
           d="m 228.063,486.722 c -5.269,-14.707 -12.94,-37.082 -19.998,-58.135 l 78.247,35.111 z"
           style="fill:#766300;fill-opacity:1;fill-rule:nonzero;stroke:none"
           id="path50879"
           inkscape:connector-curvature="0" /><path
           d="m 364.257,456.268 -3.012,-3.163 c 1.545,0.874 2.447,1.944 3.012,3.163"
           style="fill:#003648;fill-opacity:1;fill-rule:nonzero;stroke:none"
           id="path50881"
           inkscape:connector-curvature="0" /><path
           d="m 353.319,450.976 c 3.712,0.428 6.213,1.16 7.926,2.129 l 3.012,3.163 c 1.183,2.55 0.895,5.755 1.945,9.201 0.833,2.732 7.229,2.576 6.874,4.297 -0.679,9.294 1.21,15.023 5.579,18.066 2.492,7.317 0.206,9.038 6.302,11.042 1.182,0.677 1.556,1.779 1.326,3.119 l -36.611,3.707 z"
           style="fill:#002c48;fill-opacity:1;fill-rule:nonzero;stroke:none"
           id="path50883"
           inkscape:connector-curvature="0" /><path
           d="m 286.312,463.698 56.55,-15.531 c 0.355,2.264 3.887,2.734 9.772,2.734 0.233,0.024 0.462,0.049 0.685,0.075 l -3.647,54.724 z"
           style="fill:#003d4c;fill-opacity:1;fill-rule:nonzero;stroke:none"
           id="path50885"
           inkscape:connector-curvature="0" /><path
           d="m 493.507,77.025 c -0.106,0.258 -0.209,0.51 -0.314,0.758 l 0.046,-3.262 z"
           style="fill:#5a2b02;fill-opacity:1;fill-rule:nonzero;stroke:none"
           id="path50887"
           inkscape:connector-curvature="0" /><path
           d="m 301.262,380.167 -96.742,37.799 c -1.229,-3.699 -2.421,-7.303 -3.558,-10.759 l 26.024,-54.092 z"
           style="fill:#888100;fill-opacity:1;fill-rule:nonzero;stroke:none"
           id="path50889"
           inkscape:connector-curvature="0" /><path
           d="m 456.314,409.273 c 0.321,3.792 1.42,7.79 3.83,15.44 1.079,3.418 2.017,6.414 2.83,9.053 l -14.995,2.157 c -0.681,-2.298 -1.424,-4.833 -2.242,-7.64 -4.903,-11.698 -4.596,-15.49 -14.99,-15.545 -2.024,-0.231 -3.449,-1.107 -4.889,-3.171 l 9.005,-18.01 z"
           style="fill:#002943;fill-opacity:1;fill-rule:nonzero;stroke:none"
           id="path50891"
           inkscape:connector-curvature="0" /><path
           d="m 301.262,380.167 47.203,58.524 c -4.156,4.739 -5.884,7.674 -5.603,9.476 l -56.55,15.531 z"
           style="fill:#227f4a;fill-opacity:1;fill-rule:nonzero;stroke:none"
           id="path50893"
           inkscape:connector-curvature="0" /><path
           d="m 286.312,463.698 -78.247,-35.111 c -1.204,-3.594 -2.391,-7.149 -3.545,-10.621 l 96.742,-37.799 z"
           style="fill:#5d7e00;fill-opacity:1;fill-rule:nonzero;stroke:none"
           id="path50895"
           inkscape:connector-curvature="0" /><path
           d="m 425.858,409.567 c -0.494,-0.709 -0.989,-1.558 -1.511,-2.569 -1.457,-2.824 -3.017,-4.618 -4.695,-5.39 l 15.211,-10.051 z"
           style="fill:#003a4c;fill-opacity:1;fill-rule:nonzero;stroke:none"
           id="path50897"
           inkscape:connector-curvature="0" /><path
           d="m 340.431,368.307 c 3.564,1.177 7.562,0.395 14.247,-1.182 4.696,-1.099 12.041,-2.021 16.322,-2.032 3.678,-0.01 5.885,-0.19 7.879,-0.944 l 55.984,27.408 -15.211,10.051 c -2.522,-1.161 -5.311,-0.002 -8.413,3.48 -3.466,3.892 -4.253,4.163 -10.583,3.631 -11.468,-2.066 -16.943,-7.684 -28.396,3.381 -2.227,1.638 -6.99,4.802 -8.578,7.9 -1.571,3.086 -6.584,9.516 -11.142,14.268 -0.299,0.312 -0.587,0.616 -0.872,0.918 l -13.749,-67.509 c 0.815,0.167 1.648,0.344 2.512,0.63"
           style="fill:#005356;fill-opacity:1;fill-rule:nonzero;stroke:none"
           id="path50899"
           inkscape:connector-curvature="0" /><path
           d="m 324.33,351.681 c 0.983,2.417 1.889,4.723 2.954,6.855 2.793,5.569 2.987,5.713 6.153,7.644 1.473,0.902 2.943,1.18 4.482,1.497 l 13.749,67.509 c -1.194,1.265 -2.262,2.432 -3.203,3.505 l -47.203,-58.524 z"
           style="fill:#157659;fill-opacity:1;fill-rule:nonzero;stroke:none"
           id="path50901"
           inkscape:connector-curvature="0" /><path
           d="m 456.281,389.713 c 0.58,3.176 0.66,7.038 0.239,11.594 -0.296,3.18 -0.412,5.53 -0.206,7.966 l -21.451,-17.716 z"
           style="fill:#00133e;fill-opacity:1;fill-rule:nonzero;stroke:none"
           id="path50903"
           inkscape:connector-curvature="0" /><path
           d="m 200.962,407.207 c -5.842,-17.767 -10.217,-31.601 -10.657,-34.147 -0.663,-3.798 0.128,-6.379 4.29,-13.974 2.734,-4.994 4.181,-7.39 6.273,-9.069 l 26.118,3.098 z"
           style="fill:#962100;fill-opacity:1;fill-rule:nonzero;stroke:none"
           id="path50905"
           inkscape:connector-curvature="0" /><path
           d="m 226.986,353.115 54.342,-35.833 19.934,62.885 z"
           style="fill:#8a8f00;fill-opacity:1;fill-rule:nonzero;stroke:none"
           id="path50907"
           inkscape:connector-curvature="0" /><path
           d="m 397.587,357.487 c 11.342,1.066 12.541,1.721 16.143,8.839 2.372,4.674 4.538,6.85 8.64,8.705 9.844,4.441 9.844,4.486 -4.003,-47.213 -1.277,-4.763 -4.78,-18.237 -7.783,-29.947 -0.925,-3.603 -1.91,-7.287 -2.873,-10.771 l 9.117,-6.6 18.035,111.057 -55.984,-27.408 c 1.641,-0.619 3.137,-1.626 5.189,-3.248 4.975,-3.947 5.741,-4.136 13.519,-3.414"
           style="fill:#005c57;fill-opacity:1;fill-rule:nonzero;stroke:none"
           id="path50909"
           inkscape:connector-curvature="0" /><path
           d="m 447.734,376.41 c 0.939,1.819 2.112,3.31 3.288,4.084 2.709,1.772 4.458,4.843 5.259,9.219 l -21.418,1.844 z"
           style="fill:#00083f;fill-opacity:1;fill-rule:nonzero;stroke:none"
           id="path50911"
           inkscape:connector-curvature="0" /><path
           d="m 416.828,280.5 3.583,0.527 c 1.899,7.371 3.875,15.067 5.485,21.353 3.253,12.725 6.201,23.595 6.544,24.156 0.662,1.072 11.299,36.481 13.875,46.195 0.344,1.293 0.837,2.548 1.419,3.679 l -12.871,15.147 z"
           style="fill:#002047;fill-opacity:1;fill-rule:nonzero;stroke:none"
           id="path50913"
           inkscape:connector-curvature="0" /><path
           d="m 405.144,278.133 11.684,2.367 -9.117,6.6 c -0.898,-3.241 -1.775,-6.307 -2.567,-8.967"
           style="fill:#398a45;fill-opacity:1;fill-rule:nonzero;stroke:none"
           id="path50915"
           inkscape:connector-curvature="0" /><path
           d="m 392.935,275.66 c 0.124,0.846 0.186,1.631 0.182,2.358 -0.027,7.261 -4.013,17.457 -7.317,18.716 -14.321,6.081 -24.241,11.106 -33.446,15.753 l 26.98,-39.583 z"
           style="fill:#398a45;fill-opacity:1;fill-rule:nonzero;stroke:none"
           id="path50917"
           inkscape:connector-curvature="0" /><path
           d="m 200.868,350.017 c 1.549,-1.244 3.452,-2.095 6.495,-3.311 4.22,-1.694 10.588,-3.421 14.152,-3.843 l 1.732,-0.204 3.739,10.456 z"
           style="fill:#a12800;fill-opacity:1;fill-rule:nonzero;stroke:none"
           id="path50919"
           inkscape:connector-curvature="0" /><path
           d="m 318.407,340.01 c 2.727,3.993 4.415,7.962 5.923,11.671 l -23.068,28.486 -19.934,-62.885 32.63,15.408 c 1.005,1.962 2.573,4.568 4.449,7.32"
           style="fill:#659225;fill-opacity:1;fill-rule:nonzero;stroke:none"
           id="path50921"
           inkscape:connector-curvature="0" /><path
           d="m 493.193,77.783 c -0.358,0.846 -0.712,1.615 -1.059,2.309 l 1.105,-5.571 z"
           style="fill:#5f0400;fill-opacity:1;fill-rule:nonzero;stroke:none"
           id="path50923"
           inkscape:connector-curvature="0" /><path
           d="m 226.986,353.115 -3.739,-10.456 4.758,-0.561 -3.095,-4.154 c -1.702,-2.276 -4.511,-8.333 -6.254,-13.457 -1.274,-3.76 -2.055,-6.669 -2.538,-10.376 l 65.21,3.171 z"
           style="fill:#a07900;fill-opacity:1;fill-rule:nonzero;stroke:none"
           id="path50925"
           inkscape:connector-curvature="0" /><path
           d="m 327.715,324.12 c -1.5,0.629 -3.044,1.261 -4.65,1.899 -5.001,1.272 -9.599,2.731 -10.217,3.249 -0.304,0.247 0.143,1.537 1.11,3.422 l -32.63,-15.408 16.765,-51.124 c 4.771,-0.408 9.071,-0.972 12.908,-1.625 z"
           style="fill:#869700;fill-opacity:1;fill-rule:nonzero;stroke:none"
           id="path50927"
           inkscape:connector-curvature="0" /><path
           d="m 352.354,312.487 c -7.955,4.015 -15.376,7.748 -24.639,11.633 l -16.714,-59.587 c 11.591,-1.963 18.987,-4.685 22.58,-6.045 1.659,-0.865 3.186,-1.705 3.397,-1.888 0.021,-0.016 0.026,-0.057 0.024,-0.112 l 42.332,16.416 z"
           style="fill:#73942b;fill-opacity:1;fill-rule:nonzero;stroke:none"
           id="path50929"
           inkscape:connector-curvature="0" /><path
           d="m 419.707,278.293 c 0.232,0.902 0.468,1.816 0.704,2.734 l -3.583,-0.527 z"
           style="fill:#1a4f2e;fill-opacity:1;fill-rule:nonzero;stroke:none"
           id="path50931"
           inkscape:connector-curvature="0" /><path
           d="m 280.594,247.928 c 1.474,4.75 3.3,8.343 5.151,11.039 l -69.882,52.817 c -0.338,-3.729 -0.461,-8.393 -0.516,-15.245 7.225,-18.66 5.507,-36.728 4.769,-57.482 l -0.99,-14.864 57.354,13.311 c 1.448,3.391 2.853,6.834 4.114,10.424"
           style="fill:#ad7000;fill-opacity:1;fill-rule:nonzero;stroke:none"
           id="path50933"
           inkscape:connector-curvature="0" /><path
           d="m 294.896,266.404 c 1.09,-0.074 2.152,-0.156 3.197,-0.246 l -16.765,51.124 -65.21,-3.171 c -0.096,-0.739 -0.18,-1.511 -0.255,-2.327 l 69.882,-52.817 c 4.048,5.89 8.225,7.484 9.151,7.437"
           style="fill:#a78c00;fill-opacity:1;fill-rule:nonzero;stroke:none"
           id="path50935"
           inkscape:connector-curvature="0" /><path
           d="m 374.336,238.375 4.998,34.529 -42.332,-16.416 c -0.02,-0.488 -0.967,-2.463 -2.278,-4.685 -1.154,-1.965 -2.928,-5.721 -4.939,-10.229 l 43.606,-4.66 c 0.318,0.49 0.633,0.977 0.945,1.461"
           style="fill:#799200;fill-opacity:1;fill-rule:nonzero;stroke:none"
           id="path50937"
           inkscape:connector-curvature="0" /><path
           d="m 418.128,272.174 c 0.509,1.965 1.038,4.019 1.579,6.119 l -2.879,2.207 z"
           style="fill:#396e0d;fill-opacity:1;fill-rule:nonzero;stroke:none"
           id="path50939"
           inkscape:connector-curvature="0" /><path
           d="m 402.479,269.924 c -0.628,-1.572 -1.377,-3.731 -2.217,-6.36 l 16.566,16.936 -11.684,-2.367 c -1.123,-3.768 -2.076,-6.725 -2.665,-8.209"
           style="fill:#44890c;fill-opacity:1;fill-rule:nonzero;stroke:none"
           id="path50941"
           inkscape:connector-curvature="0" /><path
           d="m 374.336,238.375 c 11.476,17.793 17.506,29.877 18.599,37.285 l -13.601,-2.756 z"
           style="fill:#44890c;fill-opacity:1;fill-rule:nonzero;stroke:none"
           id="path50943"
           inkscape:connector-curvature="0" /><path
           d="m 400.262,263.564 c -2.361,-7.384 -5.449,-18.513 -8.666,-31 l 15.876,-3.876 c 2.86,12.441 5.96,25.378 7.831,32.585 0.777,2.981 1.753,6.748 2.825,10.901 l -1.3,8.326 z"
           style="fill:#488100;fill-opacity:1;fill-rule:nonzero;stroke:none"
           id="path50945"
           inkscape:connector-curvature="0" /><path
           d="m 258.021,190.449 c 5.044,6.469 6.076,9.199 9.366,24.641 2.548,7.851 5.926,15.002 9.093,22.414 l -57.354,-13.311 -0.154,-2.314 c -0.586,-5.527 -1.471,-10.451 -2.849,-15.842 l 37.282,-23.531 c 1.737,3.48 3.402,6.387 4.616,7.943"
           style="fill:#ad6d00;fill-opacity:1;fill-rule:nonzero;stroke:none"
           id="path50947"
           inkscape:connector-curvature="0" /><path
           d="m 351.318,179.686 -5.036,12.212 3.354,5.741 c 1.839,3.166 5.74,9.937 8.661,15.058 2.909,5.129 9.05,15.004 13.624,21.967 0.195,0.297 0.386,0.59 0.578,0.885 l -73.247,-58.408 c 0.679,-2.891 2.348,-5.606 5.001,-8.481 6.101,-6.619 11.223,-9.805 15.976,-9.937 1.847,-0.053 5.06,-2.457 9.085,-6.787 l 41.477,-10.733 0.65,18.709 c -0.957,0.822 -3.596,1.779 -6.193,2.219 -6.54,1.105 -7.811,2.705 -13.93,17.555"
           style="fill:#9e6f00;fill-opacity:1;fill-rule:nonzero;stroke:none"
           id="path50949"
           inkscape:connector-curvature="0" /><path
           d="m 373.391,236.914 -43.606,4.66 C 324.303,229.289 317.06,211.443 315.82,209.193 l -5.294,-6.267 -5.146,-6.313 c -5.345,-8.431 -7.358,-14.246 -6.128,-19.472 l 73.247,58.408 c 0.3,0.457 0.599,0.914 0.892,1.365"
           style="fill:#a48500;fill-opacity:1;fill-rule:nonzero;stroke:none"
           id="path50951"
           inkscape:connector-curvature="0" /><path
           d="m 376.929,168.328 c -1.694,-9.051 -3.287,-15.035 -3.531,-13.314 -0.261,1.72 -1.044,3.83 -1.744,4.691 -0.056,0.066 -0.131,0.137 -0.213,0.207 l -0.65,-18.709 25.612,38.807 c 2.337,9.928 5.519,23.851 8.057,35.351 0.921,4.162 1.949,8.709 3.012,13.327 l -15.876,3.876 c -5.526,-21.439 -11.428,-46.88 -14.667,-64.236"
           style="fill:#757e00;fill-opacity:1;fill-rule:nonzero;stroke:none"
           id="path50953"
           inkscape:connector-curvature="0" /><path
           d="m 231.573,127.371 c 2.942,9.643 6.156,18.783 8.521,23.436 1.307,2.574 4.838,11.213 7.847,19.197 1.576,4.189 3.563,8.689 5.464,12.502 l -37.282,23.531 c -1.976,-7.728 -4.967,-16.418 -9.552,-29.223 l 14.482,-56.968 z"
           style="fill:#ac5100;fill-opacity:1;fill-rule:nonzero;stroke:none"
           id="path50955"
           inkscape:connector-curvature="0" /><path
           d="m 444.924,131.076 c 0.906,2.295 1.458,3.926 1.458,4.461 0,1.91 -16.072,15.951 -20.875,18.244 -0.771,0.367 -1.564,0.559 -2.531,0.551 l -1.164,-30.926 z"
           style="fill:#705100;fill-opacity:1;fill-rule:nonzero;stroke:none"
           id="path50957"
           inkscape:connector-curvature="0" /><path
           d="m 421.812,123.406 1.164,30.926 c -1.893,-0.018 -4.459,-0.807 -8.857,-2.561 -8.321,-3.324 -8.638,-3.353 -16.06,-1.289 -4.163,1.161 -7.573,2.821 -7.573,3.688 0,0.877 1.753,8.715 3.903,17.42 0.538,2.191 1.228,5.08 2.014,8.42 l -25.612,-38.807 z"
           style="fill:#815e00;fill-opacity:1;fill-rule:nonzero;stroke:none"
           id="path50959"
           inkscape:connector-curvature="0" /><path
           d="m 206.571,176.814 c -0.005,-0.013 -0.01,-0.027 -0.015,-0.044 -3.645,-8.377 -4.969,-13.762 -6.204,-25.282 -0.685,-6.347 -1.902,-14.892 -2.998,-21.226 l 23.699,-10.416 z"
           style="fill:#ac3300;fill-opacity:1;fill-rule:nonzero;stroke:none"
           id="path50961"
           inkscape:connector-curvature="0" /><path
           d="m 146.308,55.527 c -0.632,0.254 -1.298,0.526 -2.008,0.821 -12.413,5.107 -15.017,5.062 -19.1,-0.34 -0.792,-1.049 -1.549,-2.098 -2.272,-3.143 l 23.374,0.297 z"
           style="fill:#a40000;fill-opacity:1;fill-rule:nonzero;stroke:none"
           id="path50963"
           inkscape:connector-curvature="0" /><path
           d="m 330.104,151.072 6.808,-7.568 -4.819,-7.244 c -4.586,-6.895 -5.324,-7.406 -15.456,-10.649 -5.861,-1.871 -11.396,-3.881 -12.314,-4.474 -1.177,-0.766 -1.661,-5.807 -1.661,-17.428 V 92.07 l 68.129,49.133 -41.477,10.733 c 0.26,-0.28 0.524,-0.569 0.79,-0.864"
           style="fill:#a93a00;fill-opacity:1;fill-rule:nonzero;stroke:none"
           id="path50965"
           inkscape:connector-curvature="0" /><path
           d="m 285.185,79.465 6.161,4.443 c -3.119,-1.053 -4.542,-1.951 -6.161,-4.443"
           style="fill:#a93a00;fill-opacity:1;fill-rule:nonzero;stroke:none"
           id="path50967"
           inkscape:connector-curvature="0" /><path
           d="m 231.573,127.371 -10.52,-7.525 6.973,-4.838 c 1.073,4.002 2.285,8.228 3.547,12.363"
           style="fill:#ad4200;fill-opacity:1;fill-rule:nonzero;stroke:none"
           id="path50969"
           inkscape:connector-curvature="0" /><path
           d="m 197.354,130.262 c -0.294,-1.707 -0.58,-3.252 -0.844,-4.551 -1.366,-8.383 -3.284,-12.27 -5.68,-14.602 -2.279,-2.142 -14.654,-20.185 -14.498,-25.609 0.066,-2.328 0.15,-3.701 0.677,-4.945 l 44.044,39.291 z"
           style="fill:#ab1600;fill-opacity:1;fill-rule:nonzero;stroke:none"
           id="path50971"
           inkscape:connector-curvature="0" /><path
           d="m 148.154,54.814 c -0.587,0.219 -1.199,0.456 -1.846,0.713 l -0.006,-2.365 z"
           style="fill:#ab1600;fill-opacity:1;fill-rule:nonzero;stroke:none"
           id="path50973"
           inkscape:connector-curvature="0" /><path
           d="M 370.791,141.203 302.662,92.07 v -4.705 l -8.094,-2.447 c -1.251,-0.381 -2.309,-0.703 -3.222,-1.01 l -6.161,-4.443 c -0.476,-0.731 -0.969,-1.6 -1.525,-2.651 l 51.855,-20.771 c 2.428,3.549 3.329,3.574 2.027,-0.813 l 28.266,-11.322 z"
           style="fill:#a30400;fill-opacity:1;fill-rule:nonzero;stroke:none"
           id="path50975"
           inkscape:connector-curvature="0" /><path
           d="m 492.134,80.092 c -0.758,1.508 -1.497,2.658 -2.221,3.471 -4.092,4.597 -35.759,27.335 -38.053,27.335 -0.913,0 -3.295,-1.425 -6.377,-3.695 l 47.756,-32.682 z"
           style="fill:#6a0000;fill-opacity:1;fill-rule:nonzero;stroke:none"
           id="path50977"
           inkscape:connector-curvature="0" /><path
           d="m 436.933,113.057 c 3.055,6.433 6.211,13.511 7.991,18.019 l -23.112,-7.67 z"
           style="fill:#6a0000;fill-opacity:1;fill-rule:nonzero;stroke:none"
           id="path50979"
           inkscape:connector-curvature="0" /><path
           d="m 421.812,123.406 -51.021,17.797 -4.983,-97.295 z"
           style="fill:#8e0f00;fill-opacity:1;fill-rule:nonzero;stroke:none"
           id="path50981"
           inkscape:connector-curvature="0" /><path
           d="m 247.658,63.332 c -2.476,5.906 -5.199,7.859 -12.058,8.637 l -5.851,0.65 -2.286,9.498 c -1.262,5.215 -2.784,10.428 -3.394,11.582 -0.792,1.508 1.089,10.612 3.957,21.309 l -6.973,4.838 7.119,-68.582 20.556,9.918 c -0.361,0.57 -0.706,1.279 -1.07,2.15"
           style="fill:#ad2700;fill-opacity:1;fill-rule:nonzero;stroke:none"
           id="path50983"
           inkscape:connector-curvature="0" /><path
           d="M 221.053,119.846 177.009,80.555 c 0.781,-1.84 2.532,-3.399 6.637,-7.364 5.044,-4.873 11.814,-8.867 12.855,-8.867 1.039,0 3.368,-2.26 5.172,-5.023 l 3.292,-5.03 -4.557,-2.363 27.764,-0.644 z"
           style="fill:#ab1300;fill-opacity:1;fill-rule:nonzero;stroke:none"
           id="path50985"
           inkscape:connector-curvature="0" /><path
           d="m 154.967,52.963 c -2.348,0.363 -4.366,0.941 -6.813,1.851 l -1.852,-1.652 z"
           style="fill:#ab1300;fill-opacity:1;fill-rule:nonzero;stroke:none"
           id="path50987"
           inkscape:connector-curvature="0" /><path
           d="m 428.568,97.357 c 0.318,0.543 0.692,1.137 1.13,1.784 1.436,2.107 4.288,7.711 7.235,13.916 l -15.121,10.349 z"
           style="fill:#700000;fill-opacity:1;fill-rule:nonzero;stroke:none"
           id="path50989"
           inkscape:connector-curvature="0" /><path
           d="m 445.875,49.752 c -0.054,0.168 -0.105,0.338 -0.159,0.51 -3.42,10.959 -5.886,16.345 -9.289,20.33 -0.46,0.539 -0.91,1.094 -1.347,1.66 l 6.428,-24.783 z"
           style="fill:#700000;fill-opacity:1;fill-rule:nonzero;stroke:none"
           id="path50991"
           inkscape:connector-curvature="0" /><path
           d="m 440.94,67.65 c 4.049,-4.619 7.436,-9.365 10.567,-14.953 l 41.732,21.824 -47.756,32.682 c -3.635,-2.676 -8.248,-6.529 -12.587,-10.617 -1.374,-1.293 -2.521,-2.191 -3.419,-2.731 l 4.518,-17.423 c 1.81,-2.584 4.342,-5.809 6.945,-8.782"
           style="fill:#700000;fill-opacity:1;fill-rule:nonzero;stroke:none"
           id="path50993"
           inkscape:connector-curvature="0" /><path
           d="m 365.808,43.908 75.7,3.561 -6.428,24.783 c -3.787,4.898 -6.565,10.586 -5.526,11.621 0.3,0.299 1.149,-1.133 1.893,-3.176 0.308,-0.861 1.24,-2.396 2.548,-4.265 l -4.518,17.423 c -2.506,-1.498 -3.041,-0.154 -0.909,3.502 l -6.756,26.049 z"
           style="fill:#830000;fill-opacity:1;fill-rule:nonzero;stroke:none"
           id="path50995"
           inkscape:connector-curvature="0" /><path
           d="m 206.107,13.293 c 7.453,1.441 13.438,2.506 16.276,2.883 l 5.789,35.088 -27.764,0.644 -1.183,-0.613 c -5.328,-2.766 -6.024,-2.842 -9.641,-0.967 -2.845,1.467 -8.189,2.022 -19.748,2.022 -7.268,0 -11.424,0.078 -14.869,0.613 l -8.665,0.199 z"
           style="fill:#a80100;fill-opacity:1;fill-rule:nonzero;stroke:none"
           id="path50997"
           inkscape:connector-curvature="0" /><path
           d="m 146.302,53.162 -23.374,-0.297 c -6.735,-9.73 -10.483,-19.236 -11.336,-28.746 -0.048,-0.533 -0.092,-1.039 -0.134,-1.517 l 12.538,-9.305 z"
           style="fill:#9e0000;fill-opacity:1;fill-rule:nonzero;stroke:none"
           id="path50999"
           inkscape:connector-curvature="0" /><path
           d="m 270.232,55.02 c -0.095,0.005 -3.12,0.91 -6.712,2.003 -3.592,1.09 -8.223,1.977 -10.293,1.977 -2.229,0 -3.434,0.496 -4.499,2.182 L 228.172,51.264 260.75,10.188 c 3.17,0.447 7.114,1.32 12.155,2.621 0.376,0.097 0.741,0.191 1.102,0.281 l 7.711,59.928 C 277.948,65.543 271.184,54.943 270.232,55.02"
           style="fill:#ad1100;fill-opacity:1;fill-rule:nonzero;stroke:none"
           id="path51001"
           inkscape:connector-curvature="0" /><path
           d="m 337.542,55.23 c -0.238,-0.798 -0.547,-1.742 -0.936,-2.841 -1.105,-3.139 -2.009,-9.366 -2.003,-13.854 0.002,-4.164 0.332,-7.287 1.306,-9.803 l 29.899,15.176 z"
           style="fill:#aa0200;fill-opacity:1;fill-rule:nonzero;stroke:none"
           id="path51003"
           inkscape:connector-curvature="0" /><path
           d="m 281.746,73.076 c -0.01,-0.019 -0.019,-0.039 -0.028,-0.058 L 274.007,13.09 c 7.923,1.988 12.389,2.476 16.325,1.791 5.265,-0.912 10.822,-1.457 15.202,-1.565 l 11.519,5.846 c 0.105,0.27 0.206,0.543 0.298,0.82 0.91,2.799 4.321,10.428 7.577,16.967 4.533,9.072 8.26,15.696 10.587,19.094 L 283.66,76.814 c -0.557,-1.05 -1.18,-2.281 -1.914,-3.738"
           style="fill:#aa0200;fill-opacity:1;fill-rule:nonzero;stroke:none"
           id="path51005"
           inkscape:connector-curvature="0" /><path
           d="m 446.368,26.684 c 0.802,0.234 1.385,0.433 1.679,0.589 3.325,1.729 2.917,6.09 -2.172,22.479 l -4.367,-2.283 z"
           style="fill:#6c0000;fill-opacity:1;fill-rule:nonzero;stroke:none"
           id="path51007"
           inkscape:connector-curvature="0" /><path
           d="m 451.507,52.697 c 2.891,-5.156 5.567,-11.031 8.343,-18.191 4.959,-12.764 7.208,-17.106 10.535,-18.543 l 22.854,58.558 z"
           style="fill:#6c0000;fill-opacity:1;fill-rule:nonzero;stroke:none"
           id="path51009"
           inkscape:connector-curvature="0" /><path
           d="m 470.385,15.963 c 0.807,-0.348 1.678,-0.525 2.668,-0.609 4.552,-0.379 26.67,6.46 30.212,9.347 0.913,0.74 1.433,1.899 1.53,3.926 l -11.556,45.894 z"
           style="fill:#5e0000;fill-opacity:1;fill-rule:nonzero;stroke:none"
           id="path51011"
           inkscape:connector-curvature="0" /><path
           d="m 335.909,28.732 c 1.761,-4.543 5.628,-7.097 13.494,-10.203 5.396,-2.127 13.313,-6.23 17.588,-9.117 4.191,-2.824 6.623,-4.34 9.617,-4.465 l -10.8,38.961 z"
           style="fill:#a00000;fill-opacity:1;fill-rule:nonzero;stroke:none"
           id="path51013"
           inkscape:connector-curvature="0" /><path
           d="m 312.942,13.887 c 1.437,0.523 3.1,2.691 4.111,5.275 l -11.519,-5.846 c 3.42,-0.087 6.123,0.094 7.408,0.571"
           style="fill:#a00000;fill-opacity:1;fill-rule:nonzero;stroke:none"
           id="path51015"
           inkscape:connector-curvature="0" /><path
           d="m 365.808,43.908 10.8,-38.961 c 3.505,-0.144 7.78,1.612 16.542,5.405 2.538,1.097 4.862,2.093 7.012,3.002 l 41.346,34.115 z"
           style="fill:#890000;fill-opacity:1;fill-rule:nonzero;stroke:none"
           id="path51017"
           inkscape:connector-curvature="0" /><path
           d="m 222.383,16.176 c 0.678,0.09 1.176,0.14 1.471,0.148 2.405,0.049 6.497,0.983 9.092,2.071 5.447,2.265 9.341,0.931 15.054,-5.184 2.787,-2.979 6.02,-3.971 12.75,-3.023 l -32.578,41.076 z"
           style="fill:#a80700;fill-opacity:1;fill-rule:nonzero;stroke:none"
           id="path51019"
           inkscape:connector-curvature="0" /><path
           d="m 111.458,22.602 c -0.74,-8.465 -0.522,-8.852 2.389,-10.086 1.066,-0.45 2.363,-0.932 3.829,-1.434 l 6.32,2.215 z"
           style="fill:#920000;fill-opacity:1;fill-rule:nonzero;stroke:none"
           id="path51021"
           inkscape:connector-curvature="0" /><path
           d="m 123.996,13.297 55.23,-5.443 c 3.149,0.623 6.398,1.283 9.653,1.964 6.077,1.272 12.012,2.465 17.228,3.475 l -59.805,39.869 z"
           style="fill:#a40000;fill-opacity:1;fill-rule:nonzero;stroke:none"
           id="path51023"
           inkscape:connector-curvature="0" /><path
           d="m 400.162,13.354 c 15.183,6.41 21.703,8.382 32.917,10.414 5.359,0.972 10.586,2.128 13.289,2.916 l -4.86,20.785 z"
           style="fill:#780000;fill-opacity:1;fill-rule:nonzero;stroke:none"
           id="path51025"
           inkscape:connector-curvature="0" /><path
           d="m 117.676,11.082 c 1.272,-0.434 2.672,-0.881 4.157,-1.33 l 2.163,3.545 z"
           style="fill:#890000;fill-opacity:1;fill-rule:nonzero;stroke:none"
           id="path51027"
           inkscape:connector-curvature="0" /><path
           d="m 121.833,9.752 c 1.118,-0.34 2.284,-0.682 3.482,-1.02 l -1.319,4.565 z"
           style="fill:#8b0000;fill-opacity:1;fill-rule:nonzero;stroke:none"
           id="path51029"
           inkscape:connector-curvature="0" /><path
           d="m 123.996,13.297 1.319,-4.565 c 10.156,-2.869 22.549,-5.564 26.5,-5.47 2.864,0.07 14.27,2 27.411,4.592 z"
           style="fill:#9b0000;fill-opacity:1;fill-rule:nonzero;stroke:none"
           id="path51031"
           inkscape:connector-curvature="0" /></g></g></g></svg>